<svg xmlns="http://www.w3.org/2000/svg" width="400" height="400" viewBox="0 0 400 400">
  <defs>
    <clipPath id="circ"><circle cx="200" cy="200" r="178"/></clipPath>
    <radialGradient id="bg" cx="50%" cy="42%" r="72%">
      <stop offset="0%" stop-color="#0e1411"/>
      <stop offset="100%" stop-color="#05080a"/>
    </radialGradient>
    <!-- ROYGBIV coursing across the pattern -->
    <linearGradient id="roygbiv" gradientUnits="userSpaceOnUse" x1="22" y1="200" x2="378" y2="200">
      <stop offset="0.00" stop-color="#ff0000"/>
      <stop offset="0.16" stop-color="#ff8a00"/>
      <stop offset="0.32" stop-color="#ffe600"/>
      <stop offset="0.50" stop-color="#28e000"/>
      <stop offset="0.66" stop-color="#00b3ff"/>
      <stop offset="0.82" stop-color="#3a3aff"/>
      <stop offset="1.00" stop-color="#b400ff"/>
    </linearGradient>
    <filter id="glow" x="-30%" y="-30%" width="160%" height="160%">
      <feGaussianBlur stdDeviation="2.4" result="b"/>
      <feMerge><feMergeNode in="b"/><feMergeNode in="SourceGraphic"/></feMerge>
    </filter>
  </defs>

  <circle cx="200" cy="200" r="178" fill="url(#bg)"/>

  <g clip-path="url(#circ)" fill="none" stroke="url(#roygbiv)" stroke-width="2" stroke-opacity="0.97">
    <circle cx="38.00" cy="231.18" r="36"/><circle cx="56.00" cy="262.35" r="36"/><circle cx="74.00" cy="293.53" r="36"/><circle cx="92.00" cy="324.71" r="36"/><circle cx="38.00" cy="168.82" r="36"/><circle cx="56.00" cy="200.00" r="36"/><circle cx="74.00" cy="231.18" r="36"/><circle cx="92.00" cy="262.35" r="36"/><circle cx="110.00" cy="293.53" r="36"/><circle cx="128.00" cy="324.71" r="36"/><circle cx="146.00" cy="355.88" r="36"/><circle cx="56.00" cy="137.65" r="36"/><circle cx="74.00" cy="168.82" r="36"/><circle cx="92.00" cy="200.00" r="36"/><circle cx="110.00" cy="231.18" r="36"/><circle cx="128.00" cy="262.35" r="36"/><circle cx="146.00" cy="293.53" r="36"/><circle cx="164.00" cy="324.71" r="36"/><circle cx="182.00" cy="355.88" r="36"/><circle cx="74.00" cy="106.47" r="36"/><circle cx="92.00" cy="137.65" r="36"/><circle cx="110.00" cy="168.82" r="36"/><circle cx="128.00" cy="200.00" r="36"/><circle cx="146.00" cy="231.18" r="36"/><circle cx="164.00" cy="262.35" r="36"/><circle cx="182.00" cy="293.53" r="36"/><circle cx="200.00" cy="324.71" r="36"/><circle cx="218.00" cy="355.88" r="36"/><circle cx="92.00" cy="75.29" r="36"/><circle cx="110.00" cy="106.47" r="36"/><circle cx="128.00" cy="137.65" r="36"/><circle cx="146.00" cy="168.82" r="36"/><circle cx="164.00" cy="200.00" r="36"/><circle cx="182.00" cy="231.18" r="36"/><circle cx="200.00" cy="262.35" r="36"/><circle cx="218.00" cy="293.53" r="36"/><circle cx="236.00" cy="324.71" r="36"/><circle cx="254.00" cy="355.88" r="36"/><circle cx="128.00" cy="75.29" r="36"/><circle cx="146.00" cy="106.47" r="36"/><circle cx="164.00" cy="137.65" r="36"/><circle cx="182.00" cy="168.82" r="36"/><circle cx="200.00" cy="200.00" r="36"/><circle cx="218.00" cy="231.18" r="36"/><circle cx="236.00" cy="262.35" r="36"/><circle cx="254.00" cy="293.53" r="36"/><circle cx="272.00" cy="324.71" r="36"/><circle cx="146.00" cy="44.12" r="36"/><circle cx="164.00" cy="75.29" r="36"/><circle cx="182.00" cy="106.47" r="36"/><circle cx="200.00" cy="137.65" r="36"/><circle cx="218.00" cy="168.82" r="36"/><circle cx="236.00" cy="200.00" r="36"/><circle cx="254.00" cy="231.18" r="36"/><circle cx="272.00" cy="262.35" r="36"/><circle cx="290.00" cy="293.53" r="36"/><circle cx="308.00" cy="324.71" r="36"/><circle cx="182.00" cy="44.12" r="36"/><circle cx="200.00" cy="75.29" r="36"/><circle cx="218.00" cy="106.47" r="36"/><circle cx="236.00" cy="137.65" r="36"/><circle cx="254.00" cy="168.82" r="36"/><circle cx="272.00" cy="200.00" r="36"/><circle cx="290.00" cy="231.18" r="36"/><circle cx="308.00" cy="262.35" r="36"/><circle cx="326.00" cy="293.53" r="36"/><circle cx="218.00" cy="44.12" r="36"/><circle cx="236.00" cy="75.29" r="36"/><circle cx="254.00" cy="106.47" r="36"/><circle cx="272.00" cy="137.65" r="36"/><circle cx="290.00" cy="168.82" r="36"/><circle cx="308.00" cy="200.00" r="36"/><circle cx="326.00" cy="231.18" r="36"/><circle cx="344.00" cy="262.35" r="36"/><circle cx="254.00" cy="44.12" r="36"/><circle cx="272.00" cy="75.29" r="36"/><circle cx="290.00" cy="106.47" r="36"/><circle cx="308.00" cy="137.65" r="36"/><circle cx="326.00" cy="168.82" r="36"/><circle cx="344.00" cy="200.00" r="36"/><circle cx="362.00" cy="231.18" r="36"/><circle cx="308.00" cy="75.29" r="36"/><circle cx="326.00" cy="106.47" r="36"/><circle cx="344.00" cy="137.65" r="36"/><circle cx="362.00" cy="168.82" r="36"/>
  </g>

  <!-- black bar + wordmark -->
  <g clip-path="url(#circ)">
    <rect x="0" y="168" width="400" height="64" fill="#000000" fill-opacity="0.9"/>
  </g>
  <text x="200" y="214" text-anchor="middle" font-family="'Bebas Neue','Arial Narrow',sans-serif"
        fill="#39ff14" letter-spacing="1.5" filter="url(#glow)">
    <tspan font-size="52">N</tspan><tspan font-size="34">orth</tspan><tspan font-size="52">EDM</tspan>
  </text>

  <!-- double neon ring frame -->
  <circle cx="200" cy="200" r="192" fill="none" stroke="#39ff14" stroke-width="3" stroke-opacity="0.9"/>
  <circle cx="200" cy="200" r="184" fill="none" stroke="#39ff14" stroke-width="1.5" stroke-opacity="0.7"/>
</svg>