<svg xmlns="http://www.w3.org/2000/svg" width="400" height="400" viewBox="0 0 400 400">
  <defs>
    <clipPath id="circ"><circle cx="200" cy="200" r="190"/></clipPath>
    <radialGradient id="bg" cx="50%" cy="42%" r="70%">
      <stop offset="0%" stop-color="#0e1411"/>
      <stop offset="100%" stop-color="#05080a"/>
    </radialGradient>
    <filter id="glow" x="-30%" y="-30%" width="160%" height="160%">
      <feGaussianBlur stdDeviation="2.4" result="b"/>
      <feMerge><feMergeNode in="b"/><feMergeNode in="SourceGraphic"/></feMerge>
    </filter>
  </defs>

  <g clip-path="url(#circ)">
    <circle cx="200" cy="200" r="190" fill="url(#bg)"/>
    <g style="mix-blend-mode:screen"><circle cx="84.00" cy="200.00" r="58" fill="none" stroke="#ff3b30" stroke-width="2.2" stroke-opacity="0.92"/><circle cx="113.00" cy="250.23" r="58" fill="none" stroke="#ff9500" stroke-width="2.2" stroke-opacity="0.92"/><circle cx="142.00" cy="300.46" r="58" fill="none" stroke="#ffd60a" stroke-width="2.2" stroke-opacity="0.92"/><circle cx="113.00" cy="149.77" r="58" fill="none" stroke="#34c759" stroke-width="2.2" stroke-opacity="0.92"/><circle cx="142.00" cy="200.00" r="58" fill="none" stroke="#00c7be" stroke-width="2.2" stroke-opacity="0.92"/><circle cx="171.00" cy="250.23" r="58" fill="none" stroke="#32ade6" stroke-width="2.2" stroke-opacity="0.92"/><circle cx="200.00" cy="300.46" r="58" fill="none" stroke="#0a84ff" stroke-width="2.2" stroke-opacity="0.92"/><circle cx="142.00" cy="99.54" r="58" fill="none" stroke="#5e5ce6" stroke-width="2.2" stroke-opacity="0.92"/><circle cx="171.00" cy="149.77" r="58" fill="none" stroke="#bf5af2" stroke-width="2.2" stroke-opacity="0.92"/><circle cx="200.00" cy="200.00" r="58" fill="none" stroke="#ff375f" stroke-width="2.2" stroke-opacity="0.92"/><circle cx="229.00" cy="250.23" r="58" fill="none" stroke="#ff6482" stroke-width="2.2" stroke-opacity="0.92"/><circle cx="258.00" cy="300.46" r="58" fill="none" stroke="#66d4cf" stroke-width="2.2" stroke-opacity="0.92"/><circle cx="200.00" cy="99.54" r="58" fill="none" stroke="#ff3b30" stroke-width="2.2" stroke-opacity="0.92"/><circle cx="229.00" cy="149.77" r="58" fill="none" stroke="#ff9500" stroke-width="2.2" stroke-opacity="0.92"/><circle cx="258.00" cy="200.00" r="58" fill="none" stroke="#ffd60a" stroke-width="2.2" stroke-opacity="0.92"/><circle cx="287.00" cy="250.23" r="58" fill="none" stroke="#34c759" stroke-width="2.2" stroke-opacity="0.92"/><circle cx="258.00" cy="99.54" r="58" fill="none" stroke="#00c7be" stroke-width="2.2" stroke-opacity="0.92"/><circle cx="287.00" cy="149.77" r="58" fill="none" stroke="#32ade6" stroke-width="2.2" stroke-opacity="0.92"/><circle cx="316.00" cy="200.00" r="58" fill="none" stroke="#0a84ff" stroke-width="2.2" stroke-opacity="0.92"/></g>
    <path d="M 0 208 L 400 286 L 400 400 L 0 400 Z" fill="#13513c" fill-opacity="0.3"/><path d="M 16.0 220.0 L -3.8 256.0 L 35.8 256.0 Z" fill="0.34" fill-opacity="#0c3f2e"/><path d="M 52.8 227.8 L 33.0 263.8 L 72.6 263.8 Z" fill="0.34" fill-opacity="#0c3f2e"/><path d="M 89.6 235.6 L 69.8 271.6 L 109.4 271.6 Z" fill="0.34" fill-opacity="#0c3f2e"/><path d="M 126.4 243.4 L 106.6 279.4 L 146.2 279.4 Z" fill="0.34" fill-opacity="#0c3f2e"/><path d="M 163.2 251.2 L 143.4 287.2 L 183.0 287.2 Z" fill="0.34" fill-opacity="#0c3f2e"/><path d="M 200.0 259.0 L 180.2 295.0 L 219.8 295.0 Z" fill="0.34" fill-opacity="#0c3f2e"/><path d="M 236.8 266.8 L 217.0 302.8 L 256.6 302.8 Z" fill="0.34" fill-opacity="#0c3f2e"/><path d="M 273.6 274.6 L 253.8 310.6 L 293.4 310.6 Z" fill="0.34" fill-opacity="#0c3f2e"/><path d="M 310.4 282.4 L 290.6 318.4 L 330.2 318.4 Z" fill="0.34" fill-opacity="#0c3f2e"/><path d="M 347.2 290.2 L 327.4 326.2 L 367.0 326.2 Z" fill="0.34" fill-opacity="#0c3f2e"/><path d="M 384.0 298.0 L 364.2 334.0 L 403.8 334.0 Z" fill="0.34" fill-opacity="#0c3f2e"/><path d="M 0 252 L 400 326 L 400 400 L 0 400 Z" fill="#0a2e23" fill-opacity="0.42"/><path d="M 16.0 262.0 L 1.7 288.0 L 30.3 288.0 Z" fill="0.42" fill-opacity="#08251d"/><path d="M 44.3 267.7 L 30.0 293.7 L 58.6 293.7 Z" fill="0.42" fill-opacity="#08251d"/><path d="M 72.6 273.4 L 58.3 299.4 L 86.9 299.4 Z" fill="0.42" fill-opacity="#08251d"/><path d="M 100.9 279.1 L 86.6 305.1 L 115.2 305.1 Z" fill="0.42" fill-opacity="#08251d"/><path d="M 129.2 284.8 L 114.9 310.8 L 143.5 310.8 Z" fill="0.42" fill-opacity="#08251d"/><path d="M 157.5 290.5 L 143.2 316.5 L 171.8 316.5 Z" fill="0.42" fill-opacity="#08251d"/><path d="M 185.8 296.2 L 171.5 322.2 L 200.1 322.2 Z" fill="0.42" fill-opacity="#08251d"/><path d="M 214.2 301.8 L 199.9 327.8 L 228.5 327.8 Z" fill="0.42" fill-opacity="#08251d"/><path d="M 242.5 307.5 L 228.2 333.5 L 256.8 333.5 Z" fill="0.42" fill-opacity="#08251d"/><path d="M 270.8 313.2 L 256.5 339.2 L 285.1 339.2 Z" fill="0.42" fill-opacity="#08251d"/><path d="M 299.1 318.9 L 284.8 344.9 L 313.4 344.9 Z" fill="0.42" fill-opacity="#08251d"/><path d="M 327.4 324.6 L 313.1 350.6 L 341.7 350.6 Z" fill="0.42" fill-opacity="#08251d"/><path d="M 355.7 330.3 L 341.4 356.3 L 370.0 356.3 Z" fill="0.42" fill-opacity="#08251d"/><path d="M 384.0 336.0 L 369.7 362.0 L 398.3 362.0 Z" fill="0.42" fill-opacity="#08251d"/>
    <rect x="0" y="171" width="400" height="58" fill="#000000" fill-opacity="0.9"/>
  </g>

  <text x="200" y="211" text-anchor="middle"
        font-family="'Bebas Neue','Arial Narrow',sans-serif" font-size="44"
        font-weight="700" letter-spacing="2.5" fill="#39ff14" filter="url(#glow)">NorthEDM</text>

  <circle cx="200" cy="200" r="190" fill="none" stroke="#000" stroke-width="10"/>
  <circle cx="200" cy="200" r="187" fill="none" stroke="#39ff14" stroke-width="2.5" stroke-opacity="0.85"/>
</svg>